<svg xmlns="http://www.w3.org/2000/svg" xmlns:xlink="http://www.w3.org/1999/xlink" width="503" height="373" viewBox="0 0 503 373">
    <defs>
        <rect id="test-a" width="234" height="173"/>
        <rect id="test-b" width="237" height="173" x="233"/>
        <rect id="test-c" width="237" height="173" x="233" y="171"/>
        <rect id="test-d" width="234" height="173" y="171"/>
    </defs>
    <g fill="none" fill-rule="evenodd" transform="translate(-3 -1)">
        <g transform="translate(36 1)">
            <use fill="#F0F0F0" xlink:href="#test-a"/>
            <rect width="233" height="172" x=".5" y=".5" stroke="#C0C1C3"/>
            <use fill="#F8F8F8" xlink:href="#test-b"/>
            <rect width="236" height="172" x="233.5" y=".5" stroke="#C0C1C3"/>
            <g>
                <use fill="#F0F0F0" xlink:href="#test-c"/>
                <rect width="236" height="172" x="233.5" y="171.5" stroke="#C0C1C3"/>
            </g>
            <g>
                <use fill="#F8F8F8" xlink:href="#test-d"/>
                <rect width="233" height="172" x=".5" y="171.5" stroke="#C0C1C3"/>
            </g>
        </g>
        <g transform="translate(50 35)">
            <g transform="translate(371 220)">
                <circle cx="35.986" cy="19" r="5" fill="#00A09D"/>
                <text fill="#1D1D1D" font-family="Arial" font-size="12" font-weight="700">
                    <tspan x="18.904" y="8.14">Slack</tspan>
                </text>
            </g>
            <g transform="translate(305 186)">
                <circle cx="35.986" cy="19" r="5" fill="#00A09D"/>
                <text fill="#1D1D1D" font-family="Arial" font-size="12" font-weight="700">
                    <tspan x="12.184" y="8.14">Shopify</tspan>
                </text>
            </g>
            <g transform="translate(217 171)">
                <circle cx="35.986" cy="19" r="5" fill="#00A09D"/>
                <text fill="#1D1D1D" font-family="Arial" font-size="12" font-weight="700">
                    <tspan x="9.33" y="8.14">Hubspot</tspan>
                </text>
            </g>
            <g transform="translate(150 189)">
                <circle cx="35.986" cy="19" r="5" fill="#00A09D"/>
                <text fill="#1D1D1D" font-family="Arial" font-size="12" font-weight="700">
                    <tspan x="8.823" y="8.14">Magento</tspan>
                </text>
            </g>
            <g transform="translate(249 117)">
                <circle cx="35" cy="18" r="5" fill="#00A09D"/>
                <text fill="#1D1D1D" font-family="Arial" font-size="12" font-weight="700">
                    <tspan x="19.51" y="8">Zoho</tspan>
                </text>
            </g>
            <g transform="translate(203 82)">
                <circle cx="35.986" cy="19" r="5" fill="#00A09D"/>
                <text fill="#1D1D1D" font-family="Arial" font-size="12" font-weight="700">
                    <tspan x="-15.415" y="8.14">&#160;&#160;&#160;&#160;&#160;&#160;&#160;&#160;&#160;&#160;Salesforce</tspan>
                </text>
            </g>
            <g transform="translate(119 100)">
                <circle cx="35.986" cy="19" r="5" fill="#00A09D"/>
                <text fill="#1D1D1D" font-family="Arial" font-size="12" font-weight="700">
                    <tspan x="9.245" y="8.14">Netsuite</tspan>
                </text>
            </g>
            <g transform="translate(84 62)">
                <circle cx="35.986" cy="19" r="5" fill="#00A09D"/>
                <text fill="#1D1D1D" font-family="Arial" font-size="12" font-weight="700">
                    <tspan x="-7.726" y="8.14">Ms. Dynamics</tspan>
                </text>
            </g>
            <g transform="translate(52)">
                <circle cx="35.986" cy="19" r="5" fill="#00A09D"/>
                <text fill="#1D1D1D" font-family="Arial" font-size="12" font-weight="700">
                    <tspan x="23.76" y="8.14">SAP</tspan>
                </text>
            </g>
            <g transform="translate(357 28)">
                <circle fill="#875A7B" cx="5" cy="5" r="5"/>
            </g>
            <g transform="translate(0 16)">
                <circle cx="35.986" cy="19" r="5" fill="#00A09D"/>
                <text fill="#1D1D1D" font-family="Arial" font-size="12" font-weight="700">
                    <tspan x="15.655" y="8.14">Oracle</tspan>
                </text>
            </g>
            <g transform="translate(320 250)">
                <circle cx="35.986" cy="19" r="5" fill="#00A09D"/>
                <text fill="#1D1D1D" font-family="Arial" font-size="12" font-weight="700">
                    <tspan x="5.41" y="8.14">Mailchimp</tspan>
                </text>
            </g>
            <g transform="translate(248 226)">
                <circle cx="35.986" cy="19" r="5" fill="#00A09D"/>
                <text fill="#1D1D1D" font-family="Arial" font-size="12" font-weight="700">
                    <tspan x="-1.089" y="8.14">Quickbooks</tspan>
                </text>
            </g>
            <g transform="translate(385 261)">
                <circle cx="35.986" cy="19" r="5" fill="#00A09D"/>
                <text fill="#1D1D1D" font-family="Arial" font-size="12" font-weight="700">
                    <tspan x="17.773" y="8.14">Trello</tspan>
                </text>
            </g>
        </g>
        <g transform="translate(384 42)">
            <path fill="#888" d="M53 18C49.1340068 18 46 14.8659932 46 11 46 7.13400675 49.1340068 4 53 4 56.8659932 4 60 7.13400675 60 11 60 14.8659932 56.8659932 18 53 18zM53 15C55.209139 15 57 13.209139 57 11 57 8.790861 55.209139 7 53 7 50.790861 7 49 8.790861 49 11 49 13.209139 50.790861 15 53 15zM38 18C34.1340068 18 31 14.8659932 31 11 31 7.13400675 34.1340068 4 38 4 41.8659932 4 45 7.13400675 45 11 45 14.8659932 41.8659932 18 38 18zM38 15C40.209139 15 42 13.209139 42 11 42 8.790861 40.209139 7 38 7 35.790861 7 34 8.790861 34 11 34 13.209139 35.790861 15 38 15z"/>
            <path fill="#888" d="M11,5.25468928 L11,1.49554521 C11,0.669578397 11.6657972,0 12.5,0 C13.3284271,0 14,0.679554462 14,1.49554521 L14,10.5044548 C14,10.5573495 13.9972695,10.6096028 13.9919391,10.66108 C13.9972927,10.7733804 14,10.886374 14,11 C14,14.8659932 10.8659932,18 7,18 C3.13400675,18 -3.76351728e-13,14.8659932 -3.76351728e-13,11 C-3.76351728e-13,7.13400675 3.13400675,4 7,4 C8.48724814,4 9.86616652,4.46381481 11,5.25468928 Z M7,15 C9.209139,15 11,13.209139 11,11 C11,8.790861 9.209139,7 7,7 C4.790861,7 3,8.790861 3,11 C3,13.209139 4.790861,15 7,15 Z" transform="translate(15)"/>
            <path fill="#875A7B" d="M7,18 C3.13400675,18 0,14.8659932 0,11 C0,7.13400675 3.13400675,4 7,4 C10.8659932,4 14,7.13400675 14,11 C14,14.8659932 10.8659932,18 7,18 Z M7,15 C9.209139,15 11,13.209139 11,11 C11,8.790861 9.209139,7 7,7 C4.790861,7 3,8.790861 3,11 C3,13.209139 4.790861,15 7,15 Z"/>
        </g>
        <g transform="translate(36 356)">
            <polygon fill="#2A2A2A" points="467.14 8.86 470.14 14.86 464.14 14.86" transform="rotate(90 467 11.86)"/>
            <path stroke="#2A2A2A" stroke-linecap="square" d="M113.516129,11.5 L464.489943,11.5"/>
            <text fill="#1D1D1D" font-family="Arial" font-size="15" font-weight="600">
                <tspan x="0" y="14">User Friendly</tspan>
            </text>
        </g>
        <g transform="matrix(0 -1 1 0 0 339)">
            <polygon fill="#2A2A2A" points="335.141 7.859 338.141 13.859 332.141 13.859" transform="rotate(90 335 10.86)"/>
            <path stroke="#2A2A2A" stroke-linecap="square" d="M129.51097,10.5 L335.4825,10.5"/>
            <text fill="#1D1D1D" font-family="Arial" font-size="15" font-weight="600">
                <tspan x=".225" y="14">Business Scope</tspan>
            </text>
        </g>
    </g>
</svg>
