<?xml version="1.0" standalone="no"?>
<!DOCTYPE svg PUBLIC "-//W3C//DTD SVG 20010904//EN"
 "http://www.w3.org/TR/2001/REC-SVG-20010904/DTD/svg10.dtd">
<svg version="1.0" xmlns="http://www.w3.org/2000/svg"
 width="503.000000pt" height="61.000000pt" viewBox="0 0 503.000000 61.000000"
 preserveAspectRatio="xMidYMid meet">
<metadata>
Created by potrace 1.15, written by Peter Selinger 2001-2017
</metadata>
<g transform="translate(0.000000,61.000000) scale(0.100000,-0.100000)"
fill="#000000" stroke="none">
<path d="M760 580 c0 -5 7 -10 15 -10 12 0 15 -14 15 -67 l0 -68 -55 3 c-49 4
-58 1 -84 -25 -54 -54 -54 -182 0 -236 26 -26 34 -28 77 -24 26 3 166 6 312 7
146 1 258 4 249 6 -14 4 -17 24 -21 114 -4 98 -7 113 -28 135 -18 19 -33 25
-67 25 -25 0 -53 -5 -64 -10 -13 -7 -19 -7 -19 0 0 6 -30 10 -75 10 -43 0 -75
-4 -75 -10 0 -5 7 -10 15 -10 13 0 15 -21 15 -125 l0 -125 -30 0 -30 0 0 210
0 210 -75 0 c-43 0 -75 -4 -75 -10z"/>
<path d="M3490 580 c0 -5 7 -10 15 -10 13 0 15 -29 15 -200 l0 -200 -25 0 -25
0 0 135 0 135 -75 0 c-43 0 -75 -4 -75 -10 0 -5 5 -10 10 -10 11 0 14 -187 4
-214 -3 -9 -12 -16 -20 -16 -11 0 -14 25 -14 125 l0 125 -161 -1 c-149 -1
-162 -3 -185 -23 -16 -13 -27 -35 -31 -61 -7 -56 22 -90 92 -110 67 -20 88
-41 60 -61 -39 -29 -92 -9 -120 47 -22 42 -35 36 -35 -16 0 -31 -4 -45 -14
-45 -10 0 -14 26 -18 110 -4 98 -7 113 -28 135 -18 19 -33 25 -67 25 -25 0
-53 -5 -64 -10 -13 -7 -19 -7 -19 0 0 6 -30 10 -75 10 -43 0 -75 -4 -75 -10 0
-5 7 -10 15 -10 13 0 15 -21 15 -125 0 -112 -2 -125 -17 -127 -10 -1 70 -4
177 -7 107 -4 198 -2 201 3 4 4 16 3 27 -3 39 -21 108 -13 141 15 27 22 31 33
31 73 0 59 -22 82 -100 108 -62 20 -79 48 -35 59 32 8 68 -10 86 -42 19 -36
39 -30 39 11 0 28 4 35 20 35 19 0 20 -7 20 -110 0 -105 1 -112 25 -136 23
-23 32 -25 78 -21 29 3 131 6 227 7 96 1 165 4 153 7 -23 4 -23 5 -23 214 l0
209 -75 0 c-43 0 -75 -4 -75 -10z"/>
<path d="M93 556 c-57 -26 -85 -95 -63 -160 15 -45 49 -72 117 -92 30 -9 66
-26 81 -39 23 -20 25 -26 17 -51 -24 -67 -110 -51 -167 31 -47 67 -62 61 -54
-22 8 -74 11 -82 27 -66 7 7 24 7 52 1 72 -17 143 -6 177 27 39 37 54 92 40
143 -13 52 -33 67 -120 97 -40 14 -79 30 -86 36 -33 28 0 89 48 89 22 0 95
-64 103 -91 4 -10 13 -19 21 -19 11 0 14 15 14 60 0 55 -2 60 -22 59 -13 0
-52 3 -88 6 -46 4 -74 1 -97 -9z"/>
<path d="M2000 555 c-82 -37 -114 -96 -113 -205 1 -145 79 -211 233 -196 36 4
75 7 88 7 21 -1 22 3 22 64 0 36 -4 65 -9 65 -4 0 -22 -23 -39 -50 -37 -60
-70 -79 -108 -62 -39 18 -54 68 -54 182 0 133 25 190 83 190 20 0 73 -55 87
-91 20 -48 40 -37 40 24 0 57 -7 73 -30 75 -8 0 -49 4 -90 7 -57 4 -83 2 -110
-10z"/>
<path d="M3780 530 c-14 -4 -37 -11 -52 -14 -24 -6 -28 -11 -28 -41 0 -24 -5
-35 -15 -35 -8 0 -15 -4 -15 -10 0 -5 7 -10 15 -10 12 0 15 -19 15 -109 0
-136 9 -152 93 -159 49 -4 58 -2 81 21 l25 25 14 -22 c12 -17 23 -21 68 -19
63 2 81 2 152 1 123 -1 251 3 240 8 -19 8 -18 194 0 219 27 36 37 7 37 -105 0
-77 -4 -110 -12 -113 -7 -3 28 -5 77 -5 50 0 82 2 73 5 -16 4 -18 18 -18 114
0 103 -1 111 -25 134 -26 27 -89 34 -126 15 -13 -7 -19 -7 -19 0 0 6 -32 10
-80 10 -47 0 -80 -4 -80 -10 0 -5 9 -10 20 -10 19 0 20 -7 20 -125 0 -118 -1
-125 -20 -125 -11 0 -18 5 -16 12 15 49 16 68 1 68 -9 0 -15 -9 -15 -24 0 -14
-4 -27 -9 -30 -5 -4 -11 38 -13 95 -3 96 -4 102 -31 125 -23 20 -39 24 -93 24
-76 0 -119 -18 -128 -55 -10 -41 9 -65 52 -65 21 0 43 5 50 12 15 15 16 58 2
58 -5 0 -10 7 -10 15 0 8 6 15 14 15 14 0 26 -42 26 -91 0 -25 -4 -29 -27 -29
-52 0 -101 -20 -125 -51 -57 -76 -57 -75 -68 -59 -5 8 -10 63 -10 123 l0 107
40 0 c22 0 40 5 40 10 0 6 -18 10 -40 10 l-40 0 0 50 c0 53 -1 53 -40 40z"/>
<path d="M4675 535 c-5 -2 -29 -9 -52 -15 -40 -10 -43 -13 -43 -45 0 -24 -5
-35 -15 -35 -8 0 -15 -4 -15 -10 0 -5 7 -10 15 -10 12 0 15 -19 15 -114 0
-112 1 -115 26 -135 39 -31 117 -29 149 4 25 24 34 65 16 65 -6 0 -16 -12 -23
-27 -7 -16 -20 -28 -28 -28 -12 0 -16 21 -18 118 l-3 117 36 0 c19 0 35 5 35
10 0 6 -16 10 -35 10 l-35 0 0 50 c0 48 -3 53 -25 45z"/>
<path d="M310 430 c0 -5 6 -10 14 -10 8 0 32 -51 61 -130 43 -116 50 -130 71
-130 28 0 28 0 9 -47 -19 -46 -43 -73 -64 -73 -14 1 -14 2 2 14 44 34 -7 91
-60 67 -63 -29 -27 -111 48 -111 11 0 33 7 48 15 33 16 48 49 117 252 28 81
54 143 62 143 6 0 12 5 12 10 0 6 -20 10 -45 10 -25 0 -45 -4 -45 -10 0 -5 7
-10 15 -10 8 0 15 -4 15 -9 0 -12 -42 -124 -50 -134 -3 -4 -16 25 -29 65 -16
49 -20 73 -12 76 6 2 11 8 11 13 0 5 -40 9 -90 9 -53 0 -90 -4 -90 -10z"/>
<path d="M1363 425 c-67 -29 -94 -129 -55 -205 46 -94 228 -94 260 -1 14 39
-9 44 -26 6 -14 -31 -52 -50 -86 -41 -25 6 -30 15 -41 79 l-6 37 86 0 86 0 -7
38 c-8 49 -29 81 -60 92 -36 14 -114 12 -151 -5z"/>
<path d="M1560 430 c0 -5 6 -10 14 -10 8 0 32 -51 61 -130 43 -116 50 -130 71
-130 28 0 28 0 9 -47 -19 -46 -43 -73 -64 -73 -14 1 -14 2 2 14 44 34 -7 91
-60 67 -63 -29 -27 -111 48 -111 11 0 33 7 48 15 33 16 48 49 117 252 28 81
54 143 62 143 6 0 12 5 12 10 0 6 -20 10 -45 10 -25 0 -45 -4 -45 -10 0 -5 7
-10 15 -10 8 0 15 -4 15 -9 0 -12 -42 -124 -50 -134 -3 -4 -16 25 -29 65 -16
49 -20 73 -12 76 6 2 11 8 11 13 0 5 -40 9 -90 9 -53 0 -90 -4 -90 -10z"/>
<path d="M2324 421 c-50 -30 -64 -58 -64 -124 0 -100 47 -147 147 -147 95 0
153 56 153 148 0 64 -23 110 -64 127 -51 21 -134 19 -172 -4z"/>
<path d="M4835 428 c-33 -19 -44 -41 -45 -84 0 -55 15 -71 90 -98 49 -18 66
-29 68 -44 2 -16 -4 -23 -23 -28 -38 -9 -84 14 -103 53 -23 47 -32 41 -32 -22
0 -50 10 -69 25 -46 3 6 17 6 36 -1 43 -15 117 -4 141 20 12 11 22 39 25 65 5
39 2 49 -20 71 -14 14 -50 32 -81 41 -62 18 -74 29 -56 50 21 26 60 17 96 -20
18 -19 35 -35 38 -35 3 0 6 19 6 43 l0 42 -73 2 c-41 2 -81 -2 -92 -9z"/>
</g>
</svg>
